<svg xmlns="http://www.w3.org/2000/svg" width="10.812" height="23.19" viewBox="0 0 10.812 23.19">
  <defs>
    <style>
      .cls-1 {
        fill: #fff;
        fill-rule: evenodd;
      }
    </style>
  </defs>
  <path id="Forma_4" data-name="Forma 4" class="cls-1" d="M713.656,2063.87l-1.157-3.24-1.59-4.51a0.564,0.564,0,0,0-.531-0.37h-4.04a0.563,0.563,0,0,0-.53.37l-1.093,3.1h0l-1.66,4.65a1.5,1.5,0,0,0,1.521,2.13h1.249v5.53h1.124l0-6.64h-2.375a0.562,0.562,0,0,1-.448-0.17,0.578,0.578,0,0,1,.008-0.49l2.6-7.37h3.243l2.6,7.37a0.578,0.578,0,0,1,.008.49,0.562,0.562,0,0,1-.448.17H709.76l0.008,6.64h1.124V2066h1.243A1.5,1.5,0,0,0,713.656,2063.87Zm-5.3-15.53a3.065,3.065,0,1,0,3.085,3.07A3.075,3.075,0,0,0,708.358,2048.34Zm0,5.01a1.945,1.945,0,1,1,1.961-1.94A1.953,1.953,0,0,1,708.358,2053.35Z" transform="translate(-702.938 -2048.34)"/>
</svg>
