<svg xmlns="http://www.w3.org/2000/svg" width="17.84" height="24.375" viewBox="0 0 17.84 24.375">
  <defs>
    <style>
      .cls-1 {
        fill: #fff;
        fill-rule: evenodd;
      }
    </style>
  </defs>
  <path id="Forma_2" data-name="Forma 2" class="cls-1" d="M1316.35,48.87L1315.06,34.6a0.771,0.771,0,0,0-.77-0.694H1312V32.379a4.575,4.575,0,0,0-9.15,0V33.9h-2.29a0.769,0.769,0,0,0-.76.694l-1.3,14.273a3.056,3.056,0,0,0,3.04,3.325h11.77A3.041,3.041,0,0,0,1316.35,48.87Zm-11.97-16.491a3.05,3.05,0,1,1,6.1,0V33.9h-6.1V32.379Zm10.06,17.8a1.507,1.507,0,0,1-1.13.5h-11.77a1.5,1.5,0,0,1-1.12-.5,1.481,1.481,0,0,1-.4-1.166l1.24-13.58h1.59v2.287a0.761,0.761,0,0,0,.76.762,0.77,0.77,0,0,0,.77-0.762V35.427h6.1v2.287a0.76,0.76,0,1,0,1.52,0V35.427h1.6l1.23,13.582A1.512,1.512,0,0,1,1314.44,50.175Z" transform="translate(-1298.5 -27.813)"/>
</svg>
